REM DIRINDEX 1\2,1\3
REM DIRNAME folder01,folder02,folder03
TITLE ""
FILE "1081-1100.mp3" MP3
  TRACK 01 AUDIO
    TITLE "0:"
    INDEX 01 00:00:00
  TRACK 02 AUDIO
    TITLE "2:cjc039_1161"
    INDEX 01 00:00:25
  TRACK 03 AUDIO
    TITLE "0:"
    INDEX 01 00:01:42
  TRACK 04 AUDIO
    TITLE "3:cjc039_1162"
    INDEX 01 00:02:18
  TRACK 05 AUDIO
    TITLE "0:"
    INDEX 01 00:05:36
  TRACK 06 AUDIO
    TITLE "2:cjc039_1163"
    INDEX 01 00:07:15
  TRACK 07 AUDIO
    TITLE "0:"
    INDEX 01 00:08:15
  TRACK 08 AUDIO
    TITLE "3:cjc039_1164"
    INDEX 01 00:08:70
  TRACK 09 AUDIO
    TITLE "0:"
    INDEX 01 00:12:65
  TRACK 10 AUDIO
    TITLE "2:cjc039_1165"
    INDEX 01 00:14:43
  TRACK 11 AUDIO
    TITLE "0:"
    INDEX 01 00:15:50
  TRACK 12 AUDIO
    TITLE "3:cjc039_1166"
    INDEX 01 00:16:30
  TRACK 13 AUDIO
    TITLE "0:"
    INDEX 01 00:19:58
  TRACK 14 AUDIO
    TITLE "2:cjc039_1167"
    INDEX 01 00:21:37
  TRACK 15 AUDIO
    TITLE "0:"
    INDEX 01 00:22:50
  TRACK 16 AUDIO
    TITLE "3:cjc039_1168"
    INDEX 01 00:23:28
  TRACK 17 AUDIO
    TITLE "0:"
    INDEX 01 00:27:34
  TRACK 18 AUDIO
    TITLE "2:cjc039_1169"
    INDEX 01 00:29:09
  TRACK 19 AUDIO
    TITLE "0:"
    INDEX 01 00:30:10
  TRACK 20 AUDIO
    TITLE "3:cjc039_1170"
    INDEX 01 00:30:63
  TRACK 21 AUDIO
    TITLE "0:"
    INDEX 01 00:34:69
  TRACK 22 AUDIO
    TITLE "2:cjc039_1171"
    INDEX 01 00:36:50
  TRACK 23 AUDIO
    TITLE "0:"
    INDEX 01 00:38:16
  TRACK 24 AUDIO
    TITLE "3:cjc039_1172"
    INDEX 01 00:38:67
  TRACK 25 AUDIO
    TITLE "0:"
    INDEX 01 00:43:15
  TRACK 26 AUDIO
    TITLE "2:cjc039_1173"
    INDEX 01 00:44:63
  TRACK 27 AUDIO
    TITLE "0:"
    INDEX 01 00:45:59
  TRACK 28 AUDIO
    TITLE "3:cjc039_1174"
    INDEX 01 00:46:35
  TRACK 29 AUDIO
    TITLE "0:"
    INDEX 01 00:49:41
  TRACK 30 AUDIO
    TITLE "2:cjc039_1175"
    INDEX 01 00:51:16
  TRACK 31 AUDIO
    TITLE "0:"
    INDEX 01 00:52:16
  TRACK 32 AUDIO
    TITLE "3:cjc039_1176"
    INDEX 01 00:52:67
  TRACK 33 AUDIO
    TITLE "0:"
    INDEX 01 00:56:53
  TRACK 34 AUDIO
    TITLE "2:cjc039_1177"
    INDEX 01 00:58:32
  TRACK 35 AUDIO
    TITLE "0:"
    INDEX 01 00:59:53
  TRACK 36 AUDIO
    TITLE "3:cjc039_1178"
    INDEX 01 01:00:23
  TRACK 37 AUDIO
    TITLE "0:"
    INDEX 01 01:03:51
  TRACK 38 AUDIO
    TITLE "2:cjc039_1179"
    INDEX 01 01:05:26
  TRACK 39 AUDIO
    TITLE "0:"
    INDEX 01 01:06:42
  TRACK 40 AUDIO
    TITLE "3:cjc039_1180"
    INDEX 01 01:07:23
  TRACK 41 AUDIO
    TITLE "0:"
    INDEX 01 01:11:31
  TRACK 42 AUDIO
    TITLE "2:cjc039_1181"
    INDEX 01 01:13:08
  TRACK 43 AUDIO
    TITLE "0:"
    INDEX 01 01:14:29
  TRACK 44 AUDIO
    TITLE "3:cjc039_1182"
    INDEX 01 01:15:07
  TRACK 45 AUDIO
    TITLE "0:"
    INDEX 01 01:19:13
  TRACK 46 AUDIO
    TITLE "2:cjc039_1183"
    INDEX 01 01:20:59
  TRACK 47 AUDIO
    TITLE "0:"
    INDEX 01 01:22:05
  TRACK 48 AUDIO
    TITLE "3:cjc039_1184"
    INDEX 01 01:22:54
  TRACK 49 AUDIO
    TITLE "0:"
    INDEX 01 01:26:34
  TRACK 50 AUDIO
    TITLE "2:cjc039_1185"
    INDEX 01 01:28:12
  TRACK 51 AUDIO
    TITLE "0:"
    INDEX 01 01:29:17
  TRACK 52 AUDIO
    TITLE "3:cjc039_1186"
    INDEX 01 01:29:70
  TRACK 53 AUDIO
    TITLE "0:"
    INDEX 01 01:33:50
  TRACK 54 AUDIO
    TITLE "2:cjc039_1187"
    INDEX 01 01:35:22
  TRACK 55 AUDIO
    TITLE "0:"
    INDEX 01 01:36:37
  TRACK 56 AUDIO
    TITLE "3:cjc039_1188"
    INDEX 01 01:37:15
  TRACK 57 AUDIO
    TITLE "0:"
    INDEX 01 01:42:12
  TRACK 58 AUDIO
    TITLE "2:cjc039_1189"
    INDEX 01 01:43:64
  TRACK 59 AUDIO
    TITLE "0:"
    INDEX 01 01:45:04
  TRACK 60 AUDIO
    TITLE "3:cjc039_1190"
    INDEX 01 01:45:55
  TRACK 61 AUDIO
    TITLE "0:"
    INDEX 01 01:48:71
  TRACK 62 AUDIO
    TITLE "2:cjc039_1191"
    INDEX 01 01:50:47
  TRACK 63 AUDIO
    TITLE "0:"
    INDEX 01 01:52:14
  TRACK 64 AUDIO
    TITLE "3:cjc039_1192"
    INDEX 01 01:52:61
  TRACK 65 AUDIO
    TITLE "0:"
    INDEX 01 01:56:26
  TRACK 66 AUDIO
    TITLE "2:cjc039_1193"
    INDEX 01 01:58:05
  TRACK 67 AUDIO
    TITLE "0:"
    INDEX 01 01:59:18
  TRACK 68 AUDIO
    TITLE "3:cjc039_1194"
    INDEX 01 01:59:71
  TRACK 69 AUDIO
    TITLE "0:"
    INDEX 01 02:03:26
  TRACK 70 AUDIO
    TITLE "2:cjc039_1195"
    INDEX 01 02:05:07
  TRACK 71 AUDIO
    TITLE "0:"
    INDEX 01 02:06:30
  TRACK 72 AUDIO
    TITLE "3:cjc039_1196"
    INDEX 01 02:07:08
  TRACK 73 AUDIO
    TITLE "0:"
    INDEX 01 02:11:47
  TRACK 74 AUDIO
    TITLE "2:cjc039_1197"
    INDEX 01 02:13:26
  TRACK 75 AUDIO
    TITLE "0:"
    INDEX 01 02:14:30
  TRACK 76 AUDIO
    TITLE "3:cjc039_1198"
    INDEX 01 02:15:07
  TRACK 77 AUDIO
    TITLE "0:"
    INDEX 01 02:19:15
  TRACK 78 AUDIO
    TITLE "2:cjc039_1199"
    INDEX 01 02:20:63
  TRACK 79 AUDIO
    TITLE "0:"
    INDEX 01 02:22:17
  TRACK 80 AUDIO
    TITLE "3:cjc039_1200"
    INDEX 01 02:22:74
  TRACK 81 AUDIO
    TITLE "0:"
    INDEX 01 02:26:66
